<?xml version="1.0" encoding="UTF-8"?>
<svg version="1.1" xmlns="http://www.w3.org/2000/svg" width="1024" height="1024">
<path d="M0 0 C0.68626465 0.2151123 1.3725293 0.43022461 2.07958984 0.65185547 C36.36020537 11.63626849 67.81549776 34.40726014 94.125 58.5625 C96.94126574 61.13500859 99.77359529 63.6642295 102.6875 66.125 C107.54025161 70.33533032 111.9881914 74.96126168 116.50390625 79.52539062 C119.64053688 82.68397767 122.76652484 85.77060144 126.1875 88.625 C134.58812054 95.74726524 141.81995753 104.51652957 148.671875 113.09375 C150.34560719 115.18310696 152.03769221 117.23807021 153.765625 119.28125 C180.927448 151.74941755 196.44814642 189.52998175 194 232 C193.511014 237.14118827 192.42825218 242.03840106 191 247 C190.64808594 248.26972656 190.29617188 249.53945313 189.93359375 250.84765625 C187.49958331 259.11010151 184.09763205 266.06422809 179 273 C178.41605469 273.80566406 177.83210938 274.61132812 177.23046875 275.44140625 C161.14615155 296.53725807 139.72530136 310.85880735 113.359375 315.53125 C82.73745962 319.38453201 53.01225335 311.11895719 23.9519043 302.44555664 C-12.73535232 291.4987189 -45.30457102 291.96768973 -81.86035156 303.05175781 C-118.78416682 314.20355396 -159.62323979 325.32043696 -196 306 C-204.90381602 300.97535447 -212.66216762 295.14574253 -220 288 C-221.06154297 287.01386719 -221.06154297 287.01386719 -222.14453125 286.0078125 C-240.27672373 268.74235963 -248.41771744 244.36066502 -249.3125 219.8125 C-248.13007843 173.35028765 -223.06713007 134.46600942 -192.38085938 101.49414062 C-191.05955319 100.06443874 -189.75588424 98.61849722 -188.453125 97.171875 C-182.89996764 91.01291865 -177.16611632 85.06209019 -171.3125 79.1875 C-170.2613501 78.12946167 -170.2613501 78.12946167 -169.18896484 77.05004883 C-164.62182842 72.49634199 -159.89644766 68.19560702 -155 64 C-153.88236998 63.0265495 -152.76516162 62.05261461 -151.6484375 61.078125 C-131.73453543 43.82642887 -110.70781272 28.39534381 -88 15 C-87.31309082 14.59378418 -86.62618164 14.18756836 -85.91845703 13.76904297 C-60.5176111 -1.04649762 -28.82455734 -9.190916 0 0 Z M-36 290 C-36 290.33 -36 290.66 -36 291 C-31.05 291 -26.1 291 -21 291 C-21 290.67 -21 290.34 -21 290 C-25.95 290 -30.9 290 -36 290 Z " fill="#AA54D9" transform="translate(539,412)"/>
<path d="M0 0 C13.4337293 10.8990634 21.10196454 27.12620399 24 44 C24.99660434 59.97041274 24.54759226 75.61217342 20 91 C19.63777344 92.23492187 19.27554688 93.46984375 18.90234375 94.7421875 C11.03211684 118.69969178 -4.384015 139.23906354 -26.61328125 151.43359375 C-41.09508727 158.6637695 -56.65432045 159.91511986 -72 155 C-84.03280717 149.75126809 -94.37711412 139.14496388 -101 128 C-101.45890625 127.23429688 -101.9178125 126.46859375 -102.390625 125.6796875 C-113.64503602 105.13699751 -113.09376477 80.46400227 -106.74609375 58.55859375 C-102.0293071 43.15417408 -95.36420569 29.42320481 -85 17 C-84.21753906 16.05382812 -83.43507813 15.10765625 -82.62890625 14.1328125 C-74.06555748 4.240432 -64.3327879 -3.44223056 -52 -8 C-51.15179687 -8.31839844 -50.30359375 -8.63679687 -49.4296875 -8.96484375 C-32.10336019 -14.57650498 -14.60188564 -10.39558113 0 0 Z " fill="#AD57D9" transform="translate(638,233)"/>
<path d="M0 0 C21.05218648 14.98851969 33.28259574 35.72956232 41 60 C41.36222656 61.11117187 41.72445312 62.22234375 42.09765625 63.3671875 C46.35006358 79.22965579 46.07749881 99.38006391 41 115 C40.64808594 116.11117187 40.29617188 117.22234375 39.93359375 118.3671875 C34.84795962 132.90236625 25.00817192 145.27552223 11.453125 152.8203125 C-1.28898088 158.94788571 -17.90122676 160.6634136 -31.5 156.4375 C-55.55141293 146.70883859 -72.17215811 126.34375134 -82.3984375 103.01171875 C-91.81336434 80.2524016 -94.78867917 52.48339468 -85.90234375 29.11328125 C-84.70138909 26.34452084 -83.39721123 23.67466151 -82 21 C-81.56945312 20.15695313 -81.13890625 19.31390625 -80.6953125 18.4453125 C-73.54450797 5.47690429 -61.29399838 -4.66284724 -47.2109375 -9.34375 C-30.75807832 -12.70637815 -14.04886433 -8.99784485 0 0 Z " fill="#AE59D9" transform="translate(452,232)"/>
<path d="M0 0 C7.83721712 6.46849869 14.01796166 13.55914089 18 23 C18.40992188 23.90234375 18.81984375 24.8046875 19.2421875 25.734375 C27.19111067 46.4563954 21.50319256 70.54147764 12.83984375 90.06640625 C7.75149635 101.1128813 1.15157831 110.0867434 -7 119 C-7.71397949 119.78987305 -7.71397949 119.78987305 -8.44238281 120.59570312 C-22.18970664 135.63853747 -41.19900249 147.68750876 -62 149 C-63.11955078 149.07927734 -63.11955078 149.07927734 -64.26171875 149.16015625 C-77.88924427 149.66487942 -90.60262947 145.18499738 -101.05078125 136.44921875 C-113.76196526 124.28845137 -120.70699222 109.35496528 -121.33691406 91.79492188 C-121.70884418 69.38374832 -113.85946648 48.5148275 -100 31 C-99.3191333 30.1339917 -99.3191333 30.1339917 -98.62451172 29.25048828 C-83.64098046 10.43856578 -63.35380516 -5.38868359 -38.890625 -8.71875 C-25.18401712 -10.0523659 -11.37945864 -8.27005005 0 0 Z " fill="#AC57D8" transform="translate(776,322)"/>
<path d="M0 0 C16.81601684 -0.74737853 35.40950242 6.4100053 48.140625 17.34765625 C49.11515625 18.24291016 49.11515625 18.24291016 50.109375 19.15625 C50.9240625 19.86652344 51.73875 20.57679688 52.578125 21.30859375 C55.12604665 23.55337412 57.62296528 25.84368682 60.109375 28.15625 C60.78871094 28.76984375 61.46804688 29.3834375 62.16796875 30.015625 C78.33568522 45.23995359 90.61537107 68.37579303 91.34765625 90.71875 C91.69443153 110.74152349 89.2828764 127.6856779 75.046875 143.03125 C62.08972075 155.23984788 47.31535616 157.7201069 30.13671875 157.39453125 C15.11707047 156.83498113 0.23495489 149.05663281 -10.890625 139.15625 C-12.30408203 137.95548828 -12.30408203 137.95548828 -13.74609375 136.73046875 C-28.26696871 124.15932764 -38.90041596 108.03054292 -45.890625 90.15625 C-46.59058594 88.43535156 -46.59058594 88.43535156 -47.3046875 86.6796875 C-53.97150302 68.61284653 -53.66974277 46.00055612 -45.67578125 28.49609375 C-39.21201006 16.37418082 -28.2897516 7.08885015 -15.328125 2.90625 C-10.19632787 1.44170951 -5.31835623 0.43953357 0 0 Z " fill="#AD59D9" transform="translate(276.890625,312.84375)"/>
<path d="M0 0 C1.32 0.33 2.64 0.66 4 1 C1.03 3.97 -1.94 6.94 -5 10 C-5.33 8.68 -5.66 7.36 -6 6 C-4.92578125 4.26171875 -4.92578125 4.26171875 -3.3125 2.6875 C-2.53326172 1.88892578 -2.53326172 1.88892578 -1.73828125 1.07421875 C-1.16464844 0.71972656 -0.59101562 0.36523438 0 0 Z " fill="#CE9AE8" transform="translate(563,239)"/>
<path d="M0 0 C1.32 0.33 2.64 0.66 4 1 C1.36 3.64 -1.28 6.28 -4 9 C-4.33 7.68 -4.66 6.36 -5 5 C-2.8125 2.1875 -2.8125 2.1875 0 0 Z " fill="#CA94E6" transform="translate(689,338)"/>
</svg>
